PathFileType	3	(X/Y/Z)	D:\Jess\PFP\Labelled\PA03\20250519\SRRun01.trc
DataRate	CameraRate	NumFrames	NumMarkers	Units	OrigDataRate	OrigDataStartFrame	OrigNumFrames
250.0	250.0	5	33	mm	250.0	37188	2501
Frame#	Time	C7			T10			CLAV			LSHO			RSHO			LASIS			RASIS			LPSIS			RPSIS			LILCR			RILCR			LGTR			LTHI			LLTHI			LLEP			LPSH			LLSH			LDSH			LLMAL			LTOE			L5TH			LHEE			RGTR			RTHI			RLTHI			RLEP			RPSH			RLSH			RDSH			RLMAL			RTOE			R5TH			RHEE			
		X1	Y1	Z1	X2	Y2	Z2	X3	Y3	Z3	X4	Y4	Z4	X5	Y5	Z5	X6	Y6	Z6	X7	Y7	Z7	X8	Y8	Z8	X9	Y9	Z9	X10	Y10	Z10	X11	Y11	Z11	X12	Y12	Z12	X13	Y13	Z13	X14	Y14	Z14	X15	Y15	Z15	X16	Y16	Z16	X17	Y17	Z17	X18	Y18	Z18	X19	Y19	Z19	X20	Y20	Z20	X21	Y21	Z21	X22	Y22	Z22	X23	Y23	Z23	X24	Y24	Z24	X25	Y25	Z25	X26	Y26	Z26	X27	Y27	Z27	X28	Y28	Z28	X29	Y29	Z29	X30	Y30	Z30	X31	Y31	Z31	X32	Y32	Z32	X33	Y33	Z33	

2189	148.748	605.7097979944224	1496.712394274719	-193.4127135509988	484.7880362717606	1282.406377155831	-184.9892610649844	714.9164894040426	1377.175028014045	-220.2009076440085	609.0372311654183	1459.157375469959	-361.1070054076943	675.8385878091259	1443.899950511832	-55.45005831406084	632.4842128412974	972.5160550014234	-330.9867834949518	620.8554698654024	982.6449523021895	-71.88993308358411	457.56855549409	1043.347334074457	-234.933117105801	453.2690001333675	1045.861514835535	-194.2066164393311	561.0851823898763	1047.250556099228	-372.7807373155489	565.1405051769947	1065.644649224237	-48.13205029195123	552.8870520654783	890.9731616611081	-382.7949391264893	727.0732343177443	758.4782597416223	-289.5916321525596	670.1895709777724	638.5139144423866	-354.936698456725	702.2770355987968	514.3601321565491	-327.8922204819222	704.4818570020161	422.3812569334423	-274.5854491969394	561.8578124829151	397.8164291064176	-338.3988219414292	525.0061682282413	296.50703937165	-277.7093701035084	405.6266856551208	275.817819248144	-318.2761598343286	450.1967964581568	118.7446372274463	-295.275403353331	406.1406935676295	120.2365135572866	-338.1373215093536	342.6995923965457	303.1912269095539	-278.2562307220818	548.8791554285424	899.4470137924293	-24.73211727872948	630.7598566380507	708.2588551917238	-103.0043694653362	520.0139621054582	641.9429904583989	-44.29947302855077	502.2666532527996	491.304886655585	-70.75491673912437	501.6999524774834	387.5553060811474	-132.2574382168622	392.8938796264467	304.7594659760275	-73.74659067790705	381.0571811814751	218.6042485474836	-142.5606592157648	282.97904038561	148.2752365313405	-105.6017619357969	400.387619241601	57.28154592354226	-129.6133376926715	363.5839769286019	48.23369580527066	-86.87319014312551	202.8258469614295	142.4682101928879	-148.8021651292527	
2190	148.752	606.0857851800549	1499.679476870312	-193.9315782848153	485.5984019471581	1285.257799794797	-183.6756506138926	715.1154360973193	1380.452143733515	-221.768590856561	607.7557658446996	1462.212790391989	-361.4353318524691	677.6474168130842	1447.277874329814	-56.73904065867809	632.4202428368559	976.2059679213392	-330.6433681730661	621.4250077343407	984.3196856366566	-71.52781890971895	457.8609896259659	1046.521308343815	-234.0509417553367	453.8421008302831	1048.854805812427	-193.2679004867079	560.9130639233548	1051.051845177761	-372.2466122730621	566.8292609140842	1067.89071782044	-47.75399227289556	553.4364902145268	895.2498078231607	-383.3814596671066	727.8901684054033	764.1652822142613	-289.6301511178163	672.5208010651874	643.5452217767294	-355.5249725325152	704.9710679080758	519.0245034710623	-328.2784398900089	710.014564394559	426.567508584458	-275.5431933888876	567.6607217180045	397.0870917001604	-338.0977943398839	535.1657177839666	294.1705120753125	-277.5680791482663	416.2297455242464	269.1810167424785	-317.2067710549008	467.2596475610027	113.8604094441244	-295.2643672293588	422.6648589716073	113.721546716992	-337.6010818024029	352.6105436147163	293.9052430854692	-276.4544412859713	548.2824773353002	901.3420214570364	-24.9604199602861	627.2122682794231	709.3064775144791	-104.4135588604082	515.7805405437761	644.4049547744065	-45.00763339410491	495.0343586511236	494.2634669334743	-71.59382230662263	493.5693532022962	390.4603248419492	-133.0175357503103	384.4359520526246	308.255993026202	-74.26452863938192	372.7712789219267	221.4773264823018	-142.4492997846569	274.2959481832709	151.4489157222203	-105.6496840002623	389.816017851293	57.04925214527793	-129.50156733445	352.6789830416392	48.6476549193264	-86.99493369536117	194.4139443880082	146.9611571735408	-149.1422910610232	
2191	148.756	606.477202922426	1502.671912133257	-194.4778449076047	486.4614124752635	1288.142478515898	-182.3498062407243	715.3086606318126	1383.740407347701	-223.3306740697219	606.5514554443261	1465.258970032896	-361.7664806411803	679.4461181871307	1450.713162258224	-58.07466378599514	632.4211625114945	979.9933484536753	-330.3060679462262	622.1114758094971	986.0287110602624	-71.23569775374565	458.2481652541745	1049.746697621346	-233.1953027052084	454.5266168881387	1051.896404441475	-192.3535702725997	560.8433553224182	1054.968770313002	-371.7090374759949	568.6389192598753	1070.168833723486	-47.43029999862835	554.0635948755471	899.6246386968191	-383.9904904817163	728.6512261405397	769.8350249270295	-289.5953154691804	674.7361223070372	648.59108581104	-356.0938285514953	707.3040994755095	523.5605476738889	-328.6589446007882	715.2537971766282	430.6909944297112	-276.5499654222149	573.3575857506312	396.2293279502445	-337.7866706779233	545.4000861173222	291.8213704639223	-277.4753939613406	427.0818965611302	262.4762392621352	-316.1423043514785	484.5594302651497	109.1889156360134	-295.3477986729311	439.4721590587902	107.3831834154057	-337.1432992184103	362.9128009013105	284.4912060871334	-274.6198062439507	547.8007636207601	903.2754444794556	-25.24276832256079	623.7826449122728	710.4573051302448	-105.9057408482063	511.7516077634469	646.9771658425551	-45.69593280297872	487.8787767530729	497.3858987369996	-72.39524436282652	485.5763767357974	393.5090052510366	-133.6508977485888	376.0907598123375	311.9047416266117	-74.71900080177727	364.704138805766	224.4583707417729	-142.2239239491508	265.863944951703	154.6785690812691	-105.6252122088735	379.3467554245511	56.8314740527922	-129.3524246107559	341.8730074344924	49.09347441388817	-87.09543924957043	186.2981680481482	151.6006129946785	-149.4447064831203	
2192	148.76	606.8809250914054	1505.672434094812	-195.0468236540937	487.3741495232605	1291.046880303249	-181.0152205756908	715.4935809796552	1387.022857352923	-224.8824314191446	605.4242250442699	1468.282697862237	-362.0994373800679	681.2318296353525	1454.186177312567	-59.45577879141518	632.4816715219025	983.8654062965574	-329.977904019142	622.9152151742097	987.758594348841	-71.01812063716034	458.7280844649854	1053.009211102604	-232.3644679575809	455.3208641871105	1054.971943222094	-191.4635364158452	560.8661324709116	1058.985422763574	-371.1651976358458	570.5551545381225	1072.462530040986	-47.16028364817807	554.7486925607813	904.0832735781511	-384.6139372683807	729.3665957972086	775.4678375051886	-289.5047067176342	676.8203173393932	653.6298891936101	-356.6296660476292	709.2814412369687	527.9387515988708	-329.0281157330527	720.1985997447235	434.7308026995066	-277.5914109019428	578.9671543210235	395.2311196815262	-337.4699153283792	555.7090755372328	289.4707197759364	-277.4328135061742	438.1948441685056	255.7260797106671	-315.0971525328445	502.0836957993908	104.7619176284134	-295.5294787347763	456.5611376345556	101.254119718258	-336.7761304737776	373.6218950006912	274.9817855875477	-272.7759929389077	547.4442598527364	905.2286084903579	-25.57491801683938	620.4785080416179	711.6793642438889	-107.4498169994625	507.9068160781075	649.6394718333037	-46.3692061943178	480.7998739678832	500.6539191682318	-73.15564126459344	477.7287117635075	396.6806597668132	-134.1465286147532	367.8621332277333	315.6901483694856	-75.10152051378208	356.8606268744795	227.5318811132088	-141.8786582768597	257.6922931685981	157.9514380434543	-105.5172483223048	368.985696218608	56.63687141834298	-129.1655533134206	331.1737889812924	49.57844741609453	-87.17192598086406	178.4931850685871	156.3790259356384	-149.6910132610282	
2193	148.764	607.2932585333313	1508.663568769958	-195.6333245596619	488.3329519756877	1293.956771775179	-179.6754630579672	715.6679817611101	1390.28308877862	-226.4190401741585	604.3729810521151	1471.270715104728	-362.4325600645829	683.001137544405	1457.676905280188	-60.88067859053068	632.5964504710159	987.8064704644529	-329.6618651484149	623.8351666454845	989.4946477014549	-70.87882921863297	459.297887046067	1056.294131107731	-231.5553108361925	456.2219600027913	1058.066862302568	-190.596424688932	560.9695057932606	1063.08348798417	-370.61234616596	572.5637648693441	1074.755258557595	-46.94253173221819	555.4730983708379	908.6108673928908	-385.2439530729469	730.0456993788841	781.0418081579129	-289.3788190541166	678.753363542669	658.6380668023679	-357.119190539068	710.9103527396771	532.1313940174764	-329.3805590209135	724.8497777334986	438.6673552070678	-278.6531813446333	584.5083147950753	394.0833183513188	-337.1528202425645	566.0906428841574	287.1308435935297	-277.4417065628358	449.5773102773639	248.9552927721313	-314.0858147654822	519.817411980114	100.6119307918123	-295.8115849681922	473.9276770403011	95.36821308808061	-336.509724069594	384.748910487552	265.4116347136599	-270.9472402782696	547.2217899536022	907.1829263024221	-25.95114320716625	617.3051504712067	712.9417754737545	-109.0135686502914	504.2230639025379	652.3726339972723	-47.03310221883212	473.7999310100141	504.0497758834991	-73.87309032940836	470.0339137899443	399.955999801084	-134.4989850612082	359.7564275313791	319.5959429507617	-75.40565977268334	349.2443630629907	230.6827125930093	-141.4111774303107	249.7887427941698	161.2565931906047	-105.3160868488492	358.7381370678679	56.4757570939073	-128.9409539737928	320.588469178097	50.11189758055211	-87.22189830251465	171.0122473836844	161.2893775286719	-149.8633276712684	
